<svg width="2000px" height="1849px"
 viewBox="0.00 0.00 741.00 684.90" xmlns="http://www.w3.org/2000/svg" xmlns:xlink="http://www.w3.org/1999/xlink">
<g id="graph0" class="graph" transform="scale(1.0 1.0) rotate(0) translate(4 680.9)">
<title>ContextMapGraph</title>
<polygon fill="white" stroke="transparent" points="-4,4 -4,-680.9 737,-680.9 737,4 -4,4"/>
<!-- GestionInventario -->
<g id="node1" class="node">
<title>GestionInventario</title>
<polygon fill="none" stroke="black" stroke-width="2" points="283.53,-601.31 289.04,-603.55 294.22,-605.84 299.06,-608.19 303.53,-610.58 307.62,-613.01 311.3,-615.46 314.56,-617.93 317.39,-620.41 319.78,-622.89 321.7,-625.35 323.16,-627.8 324.15,-630.23 324.66,-632.63 324.69,-634.98 324.24,-637.3 323.31,-639.56 321.91,-641.76 320.04,-643.91 317.71,-645.98 314.94,-647.99 311.73,-649.92 308.1,-651.78 304.06,-653.55 299.64,-655.24 294.85,-656.85 289.71,-658.36 284.25,-659.79 278.49,-661.13 272.45,-662.38 266.16,-663.54 259.65,-664.61 252.93,-665.59 246.04,-666.47 239,-667.27 231.85,-667.97 224.59,-668.58 217.27,-669.11 209.91,-669.54 202.53,-669.89 195.16,-670.14 187.82,-670.31 180.53,-670.39 173.32,-670.39 166.2,-670.3 159.2,-670.12 152.34,-669.85 145.62,-669.5 139.07,-669.07 132.7,-668.54 126.53,-667.94 120.56,-667.24 114.81,-666.46 109.29,-665.59 104,-664.64 98.95,-663.6 94.16,-662.47 89.61,-661.26 85.33,-659.97 81.3,-658.59 77.54,-657.12 74.04,-655.58 70.81,-653.95 67.85,-652.25 65.15,-650.46 62.73,-648.61 60.57,-646.68 58.68,-644.68 57.06,-642.62 55.7,-640.49 54.61,-638.31 53.78,-636.08 53.22,-633.8 52.93,-631.47 52.9,-629.12 53.14,-626.73 53.64,-624.32 54.41,-621.9 55.44,-619.47 56.74,-617.04 58.31,-614.62 60.14,-612.22 62.25,-609.84 64.62,-607.5 67.27,-605.2 70.18,-602.95 73.36,-600.76 76.82,-598.65 80.53,-596.61 84.52,-594.65 88.77,-592.79 93.28,-591.04 98.04,-589.39 103.05,-587.86 108.31,-586.46 113.81,-585.19 119.54,-584.05 125.48,-583.06 131.64,-582.21 137.99,-581.51 144.53,-580.97 151.23,-580.58 158.09,-580.35 165.09,-580.28 172.21,-580.38 179.42,-580.63 186.72,-581.04 194.07,-581.61 201.45,-582.33 208.85,-583.21 216.23,-584.23 223.57,-585.39 230.84,-586.7 238.03,-588.13 245.09,-589.7 252.02,-591.38 258.77,-593.17 265.32,-595.07 271.65,-597.07 277.73,-599.15 283.53,-601.31"/>
<text text-anchor="middle" x="179" y="-624.89" font-family="sans-serif" font-size="16.00">GestionInventario</text>
</g>
<!-- GestionVentas -->
<g id="node2" class="node">
<title>GestionVentas</title>
<polygon fill="none" stroke="black" stroke-width="2" points="322.79,-185.32 324.48,-188.11 325.86,-190.92 326.91,-193.73 327.64,-196.52 328.03,-199.29 328.08,-202.02 327.79,-204.7 327.17,-207.33 326.2,-209.9 324.89,-212.39 323.24,-214.8 321.26,-217.11 318.95,-219.33 316.32,-221.45 313.37,-223.46 310.11,-225.35 306.55,-227.13 302.71,-228.78 298.59,-230.3 294.21,-231.7 289.58,-232.97 284.71,-234.1 279.62,-235.11 274.34,-235.99 268.87,-236.73 263.23,-237.35 257.44,-237.84 251.53,-238.21 245.5,-238.46 239.38,-238.58 233.2,-238.6 226.96,-238.5 220.7,-238.3 214.42,-237.99 208.15,-237.59 201.92,-237.09 195.73,-236.5 189.61,-235.82 183.58,-235.06 177.65,-234.23 171.84,-233.32 166.18,-232.33 160.67,-231.29 155.33,-230.17 150.18,-229 145.23,-227.77 140.49,-226.48 135.97,-225.14 131.69,-223.75 127.66,-222.32 123.88,-220.83 120.36,-219.3 117.11,-217.72 114.14,-216.1 111.46,-214.44 109.05,-212.74 106.94,-210.99 105.12,-209.21 103.6,-207.39 102.37,-205.54 101.44,-203.64 100.8,-201.72 100.46,-199.76 100.41,-197.77 100.65,-195.76 101.17,-193.72 101.98,-191.65 103.06,-189.57 104.42,-187.47 106.04,-185.35 107.93,-183.23 110.07,-181.11 112.46,-178.98 115.09,-176.86 117.96,-174.76 121.06,-172.67 124.38,-170.61 127.9,-168.59 131.64,-166.6 135.56,-164.65 139.67,-162.77 143.96,-160.94 148.42,-159.18 153.03,-157.5 157.79,-155.91 162.69,-154.41 167.72,-153.01 172.86,-151.72 178.11,-150.54 183.45,-149.49 188.88,-148.57 194.38,-147.78 199.93,-147.14 205.54,-146.64 211.18,-146.3 216.83,-146.11 222.5,-146.08 228.16,-146.21 233.81,-146.5 239.42,-146.96 244.98,-147.59 250.49,-148.37 255.92,-149.32 261.25,-150.44 266.49,-151.71 271.6,-153.13 276.58,-154.7 281.41,-156.42 286.08,-158.27 290.58,-160.26 294.88,-162.37 298.97,-164.59 302.84,-166.92 306.49,-169.34 309.88,-171.85 313.02,-174.43 315.9,-177.08 318.49,-179.79 320.79,-182.54 322.79,-185.32"/>
<text text-anchor="middle" x="212" y="-190.93" font-family="sans-serif" font-size="16.00">GestionVentas</text>
</g>
<!-- GestionInventario&#45;&gt;GestionVentas -->
<g id="edge1" class="edge">
<title>GestionInventario&#45;&gt;GestionVentas</title>
<path fill="none" stroke="black" stroke-width="2" d="M181.42,-580.49C185.17,-510.65 193.13,-375.71 204,-261.31 204.73,-253.66 205.62,-245.52 206.55,-237.68"/>
<text text-anchor="middle" x="268.5" y="-408.92" font-family="sans-serif" font-size="12.00"> &#160;&#160;&#160;&#160;&#160;&#160;&#160;&#160;&#160;&#160;&#160;&#160;&#160;&#160;&#160;&#160;&#160;&#160;&#160;&#160;&#160;&#160;&#160;&#160;&#160;&#160;&#160;&#160;&#160;&#160;&#160;&#160;&#160;&#160;&#160;&#160;&#160;&#160;&#160;</text>
<polygon fill="white" stroke="transparent" points="199.55,-228.68 199.55,-245.68 213.55,-245.68 213.55,-228.68 199.55,-228.68"/>
<text text-anchor="start" x="201.55" y="-234.08" font-family="sans-serif" font-size="12.00">D</text>
<polygon fill="white" stroke="transparent" points="174.42,-571.49 174.42,-588.49 188.42,-588.49 188.42,-571.49 174.42,-571.49"/>
<text text-anchor="start" x="176.42" y="-576.89" font-family="sans-serif" font-size="12.00">U</text>
</g>
<!-- GestionPagos -->
<g id="node3" class="node">
<title>GestionPagos</title>
<polygon fill="none" stroke="black" stroke-width="2" points="394.28,-66.22 391.54,-68.87 388.54,-71.46 385.29,-73.97 381.81,-76.39 378.11,-78.72 374.2,-80.94 370.09,-83.05 365.79,-85.03 361.33,-86.89 356.72,-88.61 351.96,-90.18 347.07,-91.6 342.07,-92.87 336.97,-93.98 331.78,-94.94 326.52,-95.72 321.2,-96.35 315.84,-96.81 310.45,-97.1 305.04,-97.23 299.62,-97.2 294.21,-97.01 288.82,-96.67 283.47,-96.17 278.16,-95.52 272.91,-94.74 267.72,-93.82 262.62,-92.76 257.6,-91.59 252.69,-90.3 247.88,-88.9 243.2,-87.4 238.65,-85.81 234.24,-84.13 229.98,-82.37 225.89,-80.54 221.96,-78.66 218.2,-76.71 214.64,-74.72 211.27,-72.7 208.1,-70.63 205.14,-68.55 202.4,-66.44 199.88,-64.33 197.59,-62.2 195.55,-60.08 193.74,-57.96 192.19,-55.84 190.9,-53.74 189.86,-51.66 189.09,-49.59 188.59,-47.55 188.36,-45.54 188.41,-43.55 188.74,-41.59 189.35,-39.67 190.24,-37.77 191.41,-35.92 192.87,-34.1 194.61,-32.32 196.62,-30.57 198.92,-28.87 201.49,-27.21 204.32,-25.59 207.43,-24.01 210.79,-22.48 214.4,-20.99 218.26,-19.55 222.35,-18.16 226.66,-16.83 231.19,-15.54 235.92,-14.31 240.85,-13.14 245.95,-12.02 251.21,-10.97 256.63,-9.99 262.17,-9.08 267.84,-8.25 273.6,-7.49 279.45,-6.81 285.36,-6.22 291.32,-5.72 297.31,-5.32 303.31,-5.01 309.3,-4.81 315.26,-4.71 321.17,-4.73 327.01,-4.85 332.77,-5.1 338.42,-5.47 343.95,-5.96 349.34,-6.58 354.57,-7.32 359.62,-8.2 364.48,-9.21 369.13,-10.34 373.56,-11.61 377.75,-13.01 381.68,-14.53 385.36,-16.18 388.76,-17.96 391.87,-19.85 394.69,-21.86 397.21,-23.97 399.41,-26.2 401.31,-28.51 402.88,-30.92 404.13,-33.41 405.05,-35.98 405.65,-38.61 405.93,-41.29 405.88,-44.02 405.5,-46.79 404.81,-49.58 403.8,-52.39 402.49,-55.19 400.87,-57.99 398.96,-60.77 396.76,-63.52 394.28,-66.22"/>
<text text-anchor="middle" x="295" y="-44.78" font-family="sans-serif" font-size="16.00">GestionPagos</text>
</g>
<!-- GestionInventario&#45;&gt;GestionPagos -->
<g id="edge2" class="edge">
<title>GestionInventario&#45;&gt;GestionPagos</title>
<path fill="none" stroke="black" stroke-width="2" d="M87.14,-593.28C43.19,-570.29 0,-534.98 0,-485.01 0,-485.01 0,-485.01 0,-193.73 0,-105.38 108.14,-71.17 193.48,-57.93"/>
<text text-anchor="middle" x="75.5" y="-336.82" font-family="sans-serif" font-size="12.00"> &#160;&#160;&#160;&#160;&#160;&#160;&#160;&#160;&#160;&#160;&#160;&#160;&#160;&#160;&#160;&#160;&#160;&#160;&#160;&#160;&#160;&#160;&#160;&#160;&#160;&#160;&#160;&#160;&#160;&#160;&#160;&#160;&#160;&#160;&#160;&#160;&#160;&#160;&#160;</text>
<polygon fill="white" stroke="transparent" points="170.48,-47.93 170.48,-66.93 186.48,-66.93 186.48,-47.93 170.48,-47.93"/>
<polyline fill="none" stroke="black" points="186.48,-47.93 186.48,-66.93 "/>
<text text-anchor="start" x="173.48" y="-54.33" font-family="sans-serif" font-size="12.00">D</text>
<polygon fill="white" stroke="transparent" points="186.48,-47.93 186.48,-66.93 216.48,-66.93 216.48,-47.93 186.48,-47.93"/>
<polygon fill="none" stroke="black" points="186.48,-47.93 186.48,-66.93 216.48,-66.93 216.48,-47.93 186.48,-47.93"/>
<text text-anchor="start" x="189.48" y="-54.33" font-family="sans-serif" font-size="12.00">ACL</text>
<polygon fill="white" stroke="transparent" points="80.14,-584.28 80.14,-601.28 94.14,-601.28 94.14,-584.28 80.14,-584.28"/>
<text text-anchor="start" x="82.14" y="-589.68" font-family="sans-serif" font-size="12.00">U</text>
</g>
<!-- GestionPromociones -->
<g id="node4" class="node">
<title>GestionPromociones</title>
<polygon fill="none" stroke="black" stroke-width="2" points="219.52,-484.28 219.32,-481.41 219.53,-478.56 220.14,-475.74 221.17,-472.95 222.6,-470.22 224.43,-467.55 226.67,-464.95 229.3,-462.43 232.31,-460.01 235.71,-457.68 239.49,-455.46 243.62,-453.36 248.11,-451.38 252.93,-449.52 258.08,-447.8 263.55,-446.21 269.31,-444.77 275.35,-443.47 281.65,-442.31 288.2,-441.3 294.97,-440.43 301.96,-439.72 309.12,-439.14 316.46,-438.71 323.94,-438.43 331.54,-438.28 339.24,-438.26 347.02,-438.38 354.86,-438.62 362.73,-438.99 370.6,-439.48 378.47,-440.07 386.3,-440.78 394.07,-441.58 401.76,-442.48 409.34,-443.47 416.8,-444.54 424.11,-445.7 431.26,-446.92 438.21,-448.22 444.96,-449.57 451.48,-450.99 457.76,-452.45 463.77,-453.97 469.51,-455.53 474.95,-457.13 480.09,-458.77 484.9,-460.44 489.37,-462.14 493.5,-463.87 497.27,-465.62 500.68,-467.4 503.71,-469.2 506.36,-471.02 508.62,-472.86 510.48,-474.72 511.95,-476.59 513.03,-478.48 513.7,-480.38 513.96,-482.29 513.83,-484.21 513.3,-486.14 512.37,-488.08 511.06,-490.02 509.35,-491.97 507.26,-493.92 504.8,-495.87 501.97,-497.82 498.78,-499.76 495.24,-501.69 491.36,-503.61 487.15,-505.52 482.63,-507.4 477.81,-509.25 472.69,-511.07 467.3,-512.86 461.64,-514.61 455.74,-516.3 449.61,-517.94 443.26,-519.52 436.72,-521.04 429.99,-522.47 423.1,-523.83 416.06,-525.1 408.89,-526.27 401.62,-527.34 394.25,-528.3 386.81,-529.15 379.31,-529.87 371.78,-530.47 364.24,-530.93 356.7,-531.26 349.18,-531.44 341.71,-531.47 334.3,-531.36 326.97,-531.09 319.74,-530.66 312.63,-530.08 305.65,-529.33 298.84,-528.43 292.19,-527.38 285.74,-526.17 279.5,-524.8 273.49,-523.28 267.71,-521.62 262.2,-519.82 256.96,-517.88 252.01,-515.82 247.37,-513.63 243.04,-511.33 239.04,-508.93 235.38,-506.43 232.07,-503.85 229.13,-501.19 226.55,-498.47 224.36,-495.69 222.56,-492.87 221.15,-490.02 220.13,-487.15 219.52,-484.28"/>
<text text-anchor="middle" x="367" y="-480.21" font-family="sans-serif" font-size="16.00">GestionPromociones</text>
</g>
<!-- GestionInventario&#45;&gt;GestionPromociones -->
<g id="edge3" class="edge">
<title>GestionInventario&#45;&gt;GestionPromociones</title>
<path fill="none" stroke="black" stroke-width="2" d="M232.62,-587C256.17,-569.12 283.9,-548.08 308.03,-529.76"/>
<text text-anchor="middle" x="353.5" y="-552.89" font-family="sans-serif" font-size="12.00"> &#160;&#160;&#160;&#160;&#160;&#160;&#160;&#160;&#160;&#160;&#160;&#160;&#160;&#160;&#160;&#160;&#160;&#160;&#160;&#160;&#160;&#160;&#160;&#160;&#160;&#160;&#160;&#160;&#160;&#160;&#160;&#160;&#160;&#160;&#160;&#160;&#160;&#160;&#160;</text>
<polygon fill="white" stroke="transparent" points="289.03,-519.76 289.03,-538.76 305.03,-538.76 305.03,-519.76 289.03,-519.76"/>
<polyline fill="none" stroke="black" points="305.03,-519.76 305.03,-538.76 "/>
<text text-anchor="start" x="292.03" y="-526.16" font-family="sans-serif" font-size="12.00">D</text>
<polygon fill="white" stroke="transparent" points="305.03,-519.76 305.03,-538.76 327.03,-538.76 327.03,-519.76 305.03,-519.76"/>
<polygon fill="none" stroke="black" points="305.03,-519.76 305.03,-538.76 327.03,-538.76 327.03,-519.76 305.03,-519.76"/>
<text text-anchor="start" x="308.03" y="-526.16" font-family="sans-serif" font-size="12.00">CF</text>
<polygon fill="white" stroke="transparent" points="225.62,-578 225.62,-595 239.62,-595 239.62,-578 225.62,-578"/>
<text text-anchor="start" x="227.62" y="-583.4" font-family="sans-serif" font-size="12.00">U</text>
</g>
<!-- GestionVentas&#45;&gt;GestionPagos -->
<g id="edge4" class="edge">
<title>GestionVentas&#45;&gt;GestionPagos</title>
<path fill="none" stroke="black" stroke-width="2" d="M206,-146.46C206.41,-135.75 208.33,-124.72 213,-115.15 218.52,-103.85 227.02,-93.88 236.5,-85.34"/>
<text text-anchor="middle" x="288.5" y="-118.55" font-family="sans-serif" font-size="12.00"> &#160;&#160;&#160;&#160;&#160;&#160;&#160;&#160;&#160;&#160;&#160;&#160;&#160;&#160;&#160;&#160;&#160;&#160;&#160;&#160;&#160;&#160;&#160;&#160;&#160;&#160;&#160;&#160;&#160;&#160;&#160;&#160;&#160;&#160;&#160;&#160;&#160;&#160;&#160;</text>
<polygon fill="white" stroke="transparent" points="213.5,-75.34 213.5,-94.34 229.5,-94.34 229.5,-75.34 213.5,-75.34"/>
<polyline fill="none" stroke="black" points="229.5,-75.34 229.5,-94.34 "/>
<text text-anchor="start" x="216.5" y="-81.74" font-family="sans-serif" font-size="12.00">D</text>
<polygon fill="white" stroke="transparent" points="229.5,-75.34 229.5,-94.34 259.5,-94.34 259.5,-75.34 229.5,-75.34"/>
<polygon fill="none" stroke="black" points="229.5,-75.34 229.5,-94.34 259.5,-94.34 259.5,-75.34 229.5,-75.34"/>
<text text-anchor="start" x="232.5" y="-81.74" font-family="sans-serif" font-size="12.00">ACL</text>
<polygon fill="white" stroke="transparent" points="199,-137.46 199,-154.46 213,-154.46 213,-137.46 199,-137.46"/>
<text text-anchor="start" x="201" y="-142.86" font-family="sans-serif" font-size="12.00">U</text>
</g>
<!-- GestionPromociones&#45;&gt;GestionPagos -->
<g id="edge5" class="edge">
<title>GestionPromociones&#45;&gt;GestionPagos</title>
<path fill="none" stroke="black" stroke-width="2" d="M474.12,-456.64C492.68,-447.46 509.88,-435.11 522,-418.52 593.52,-320.63 605.01,-246.52 537,-146.15 505.66,-99.91 448.24,-75.8 397.19,-63.24"/>
<text text-anchor="middle" x="657.5" y="-264.71" font-family="sans-serif" font-size="12.00"> &#160;&#160;&#160;&#160;&#160;&#160;&#160;&#160;&#160;&#160;&#160;&#160;&#160;&#160;&#160;&#160;&#160;&#160;&#160;&#160;&#160;&#160;&#160;&#160;&#160;&#160;&#160;&#160;&#160;&#160;&#160;&#160;&#160;&#160;&#160;&#160;&#160;&#160;&#160;</text>
<polygon fill="white" stroke="transparent" points="374.19,-53.24 374.19,-72.24 390.19,-72.24 390.19,-53.24 374.19,-53.24"/>
<polyline fill="none" stroke="black" points="390.19,-53.24 390.19,-72.24 "/>
<text text-anchor="start" x="377.19" y="-59.64" font-family="sans-serif" font-size="12.00">D</text>
<polygon fill="white" stroke="transparent" points="390.19,-53.24 390.19,-72.24 420.19,-72.24 420.19,-53.24 390.19,-53.24"/>
<polygon fill="none" stroke="black" points="390.19,-53.24 390.19,-72.24 420.19,-72.24 420.19,-53.24 390.19,-53.24"/>
<text text-anchor="start" x="393.19" y="-59.64" font-family="sans-serif" font-size="12.00">ACL</text>
<polygon fill="white" stroke="transparent" points="467.12,-447.64 467.12,-464.64 481.12,-464.64 481.12,-447.64 467.12,-447.64"/>
<text text-anchor="start" x="469.12" y="-453.04" font-family="sans-serif" font-size="12.00">U</text>
</g>
<!-- GestionUsuarios -->
<g id="node5" class="node">
<title>GestionUsuarios</title>
<polygon fill="none" stroke="black" stroke-width="2" points="488.68,-349.55 487.02,-352.37 485.03,-355.14 482.72,-357.86 480.09,-360.51 477.17,-363.08 473.95,-365.57 470.45,-367.96 466.68,-370.24 462.64,-372.41 458.35,-374.45 453.83,-376.37 449.08,-378.14 444.12,-379.78 438.96,-381.27 433.61,-382.6 428.1,-383.78 422.43,-384.81 416.62,-385.68 410.69,-386.38 404.65,-386.93 398.51,-387.32 392.3,-387.55 386.03,-387.63 379.71,-387.56 373.37,-387.34 367.01,-386.97 360.65,-386.47 354.32,-385.83 348.02,-385.07 341.77,-384.18 335.59,-383.18 329.49,-382.07 323.49,-380.85 317.6,-379.55 311.84,-378.15 306.22,-376.67 300.76,-375.12 295.47,-373.51 290.37,-371.83 285.47,-370.1 280.77,-368.32 276.3,-366.5 272.07,-364.65 268.08,-362.76 264.35,-360.85 260.89,-358.92 257.7,-356.98 254.81,-355.02 252.21,-353.06 249.91,-351.09 247.92,-349.12 246.25,-347.16 244.91,-345.2 243.89,-343.24 243.2,-341.29 242.85,-339.35 242.83,-337.43 243.15,-335.51 243.81,-333.61 244.81,-331.73 246.15,-329.86 247.82,-328.01 249.82,-326.18 252.15,-324.36 254.8,-322.58 257.77,-320.81 261.05,-319.07 264.62,-317.36 268.49,-315.67 272.64,-314.02 277.06,-312.41 281.74,-310.83 286.67,-309.3 291.83,-307.81 297.21,-306.37 302.79,-304.99 308.57,-303.67 314.51,-302.41 320.61,-301.21 326.85,-300.1 333.21,-299.06 339.67,-298.11 346.22,-297.24 352.83,-296.48 359.48,-295.81 366.16,-295.26 372.84,-294.81 379.51,-294.49 386.15,-294.28 392.74,-294.2 399.25,-294.26 405.67,-294.45 411.98,-294.78 418.16,-295.24 424.19,-295.86 430.06,-296.61 435.74,-297.51 441.23,-298.56 446.5,-299.75 451.54,-301.09 456.34,-302.57 460.88,-304.19 465.15,-305.94 469.14,-307.83 472.83,-309.84 476.22,-311.97 479.3,-314.21 482.06,-316.56 484.49,-319.01 486.59,-321.54 488.35,-324.16 489.77,-326.85 490.85,-329.6 491.57,-332.39 491.95,-335.22 491.99,-338.08 491.67,-340.96 491.01,-343.84 490.02,-346.71 488.68,-349.55"/>
<text text-anchor="middle" x="367" y="-336.12" font-family="sans-serif" font-size="16.00">GestionUsuarios</text>
</g>
<!-- GestionPromociones&#45;&gt;GestionUsuarios -->
<g id="edge6" class="edge">
<title>GestionPromociones&#45;&gt;GestionUsuarios</title>
<path fill="none" stroke="black" stroke-width="2" d="M367,-439.22C367,-422.74 367,-403.97 367,-387.27"/>
<text text-anchor="middle" x="442.5" y="-408.92" font-family="sans-serif" font-size="12.00"> &#160;&#160;&#160;&#160;&#160;&#160;&#160;&#160;&#160;&#160;&#160;&#160;&#160;&#160;&#160;&#160;&#160;&#160;&#160;&#160;&#160;&#160;&#160;&#160;&#160;&#160;&#160;&#160;&#160;&#160;&#160;&#160;&#160;&#160;&#160;&#160;&#160;&#160;&#160;</text>
<polygon fill="white" stroke="transparent" points="360,-378.27 360,-395.27 374,-395.27 374,-378.27 360,-378.27"/>
<text text-anchor="start" x="362" y="-383.67" font-family="sans-serif" font-size="12.00">D</text>
<polygon fill="white" stroke="transparent" points="360,-430.22 360,-447.22 374,-447.22 374,-430.22 360,-430.22"/>
<text text-anchor="start" x="362" y="-435.62" font-family="sans-serif" font-size="12.00">U</text>
</g>
<!-- GestionUsuarios&#45;&gt;GestionVentas -->
<g id="edge7" class="edge">
<title>GestionUsuarios&#45;&gt;GestionVentas</title>
<path fill="none" stroke="black" stroke-width="2" d="M266.7,-316.39C245.62,-306.89 225.88,-293.42 213,-274.31 205.83,-263.68 203.79,-250.26 204.08,-237.53"/>
<text text-anchor="middle" x="288.5" y="-264.71" font-family="sans-serif" font-size="12.00"> &#160;&#160;&#160;&#160;&#160;&#160;&#160;&#160;&#160;&#160;&#160;&#160;&#160;&#160;&#160;&#160;&#160;&#160;&#160;&#160;&#160;&#160;&#160;&#160;&#160;&#160;&#160;&#160;&#160;&#160;&#160;&#160;&#160;&#160;&#160;&#160;&#160;&#160;&#160;</text>
<polygon fill="white" stroke="transparent" points="181.08,-227.53 181.08,-246.53 197.08,-246.53 197.08,-227.53 181.08,-227.53"/>
<polyline fill="none" stroke="black" points="197.08,-227.53 197.08,-246.53 "/>
<text text-anchor="start" x="184.08" y="-233.93" font-family="sans-serif" font-size="12.00">D</text>
<polygon fill="white" stroke="transparent" points="197.08,-227.53 197.08,-246.53 227.08,-246.53 227.08,-227.53 197.08,-227.53"/>
<polygon fill="none" stroke="black" points="197.08,-227.53 197.08,-246.53 227.08,-246.53 227.08,-227.53 197.08,-227.53"/>
<text text-anchor="start" x="200.08" y="-233.93" font-family="sans-serif" font-size="12.00">ACL</text>
<polygon fill="white" stroke="transparent" points="259.7,-307.39 259.7,-324.39 273.7,-324.39 273.7,-307.39 259.7,-307.39"/>
<text text-anchor="start" x="261.7" y="-312.79" font-family="sans-serif" font-size="12.00">U</text>
</g>
<!-- GestionUsuarios&#45;&gt;GestionPagos -->
<g id="edge8" class="edge">
<title>GestionUsuarios&#45;&gt;GestionPagos</title>
<path fill="none" stroke="black" stroke-width="2" d="M376.21,-294.32C383.68,-247.57 389.29,-173 364,-115.15 360.29,-106.67 354.91,-98.77 348.75,-91.59"/>
<text text-anchor="middle" x="457.5" y="-191.63" font-family="sans-serif" font-size="12.00"> &#160;&#160;&#160;&#160;&#160;&#160;&#160;&#160;&#160;&#160;&#160;&#160;&#160;&#160;&#160;&#160;&#160;&#160;&#160;&#160;&#160;&#160;&#160;&#160;&#160;&#160;&#160;&#160;&#160;&#160;&#160;&#160;&#160;&#160;&#160;&#160;&#160;&#160;&#160;</text>
<polygon fill="white" stroke="transparent" points="325.75,-81.59 325.75,-100.59 341.75,-100.59 341.75,-81.59 325.75,-81.59"/>
<polyline fill="none" stroke="black" points="341.75,-81.59 341.75,-100.59 "/>
<text text-anchor="start" x="328.75" y="-87.99" font-family="sans-serif" font-size="12.00">D</text>
<polygon fill="white" stroke="transparent" points="341.75,-81.59 341.75,-100.59 371.75,-100.59 371.75,-81.59 341.75,-81.59"/>
<polygon fill="none" stroke="black" points="341.75,-81.59 341.75,-100.59 371.75,-100.59 371.75,-81.59 341.75,-81.59"/>
<text text-anchor="start" x="344.75" y="-87.99" font-family="sans-serif" font-size="12.00">ACL</text>
<polygon fill="white" stroke="transparent" points="369.21,-285.32 369.21,-302.32 383.21,-302.32 383.21,-285.32 369.21,-285.32"/>
<text text-anchor="start" x="371.21" y="-290.72" font-family="sans-serif" font-size="12.00">U</text>
</g>
</g>
</svg>
