<svg width="2000px" height="758px"
 viewBox="0.00 0.00 1026.93 388.93" xmlns="http://www.w3.org/2000/svg" xmlns:xlink="http://www.w3.org/1999/xlink">
<g id="graph0" class="graph" transform="scale(1.0 1.0) rotate(0) translate(4 384.93)">
<title>ContextMapGraph</title>
<polygon fill="white" stroke="transparent" points="-4,4 -4,-384.93 1022.93,-384.93 1022.93,4 -4,4"/>
<!-- GestionInventario -->
<g id="node1" class="node">
<title>GestionInventario</title>
<polygon fill="none" stroke="black" stroke-width="2" points="186.29,-290.43 194.61,-291.26 202.78,-292.2 210.75,-293.24 218.49,-294.39 225.97,-295.64 233.16,-296.98 240.03,-298.41 246.55,-299.93 252.7,-301.53 258.46,-303.21 263.81,-304.96 268.72,-306.77 273.18,-308.65 277.19,-310.59 280.72,-312.57 283.76,-314.6 286.32,-316.68 288.39,-318.79 289.97,-320.92 291.06,-323.08 291.66,-325.26 291.78,-327.46 291.44,-329.66 290.63,-331.86 289.37,-334.07 287.68,-336.26 285.57,-338.44 283.06,-340.6 280.17,-342.74 276.92,-344.85 273.33,-346.93 269.41,-348.96 265.2,-350.96 260.71,-352.91 255.97,-354.8 251,-356.64 245.82,-358.42 240.46,-360.13 234.93,-361.77 229.26,-363.33 223.47,-364.82 217.57,-366.23 211.59,-367.55 205.54,-368.78 199.44,-369.92 193.31,-370.96 187.16,-371.91 181,-372.75 174.84,-373.49 168.7,-374.13 162.59,-374.65 156.51,-375.07 150.47,-375.37 144.48,-375.55 138.55,-375.63 132.68,-375.58 126.87,-375.42 121.13,-375.14 115.47,-374.74 109.89,-374.23 104.38,-373.6 98.96,-372.86 93.63,-372 88.39,-371.03 83.25,-369.94 78.21,-368.75 73.27,-367.45 68.44,-366.05 63.73,-364.55 59.15,-362.96 54.7,-361.27 50.39,-359.5 46.22,-357.64 42.22,-355.7 38.39,-353.7 34.74,-351.62 31.29,-349.49 28.05,-347.3 25.02,-345.06 22.24,-342.78 19.7,-340.46 17.43,-338.12 15.45,-335.75 13.75,-333.38 12.37,-330.99 11.32,-328.6 10.6,-326.23 10.24,-323.86 10.24,-321.52 10.62,-319.21 11.39,-316.94 12.56,-314.71 14.13,-312.53 16.12,-310.41 18.52,-308.35 21.35,-306.36 24.59,-304.45 28.26,-302.62 32.34,-300.88 36.84,-299.23 41.74,-297.68 47.04,-296.23 52.72,-294.89 58.76,-293.66 65.16,-292.54 71.9,-291.54 78.94,-290.65 86.28,-289.89 93.88,-289.25 101.71,-288.74 109.76,-288.35 117.99,-288.08 126.36,-287.95 134.85,-287.93 143.42,-288.05 152.04,-288.28 160.67,-288.64 169.28,-289.12 177.83,-289.72 186.29,-290.43"/>
<text text-anchor="middle" x="145.93" y="-328.38" font-family="sans-serif" font-size="16.00">GestionInventario</text>
</g>
<!-- GestionPromociones -->
<g id="node2" class="node">
<title>GestionPromociones</title>
<polygon fill="none" stroke="black" stroke-width="2" points="494.19,-170.33 497.67,-173 500.75,-175.69 503.42,-178.4 505.65,-181.12 507.45,-183.82 508.79,-186.51 509.67,-189.18 510.09,-191.8 510.04,-194.38 509.52,-196.91 508.52,-199.37 507.06,-201.76 505.12,-204.08 502.71,-206.31 499.85,-208.44 496.54,-210.48 492.79,-212.42 488.61,-214.26 484.01,-215.98 479.02,-217.6 473.65,-219.1 467.91,-220.48 461.83,-221.74 455.44,-222.89 448.74,-223.92 441.77,-224.83 434.55,-225.63 427.1,-226.31 419.46,-226.88 411.64,-227.33 403.68,-227.68 395.61,-227.92 387.44,-228.05 379.22,-228.09 370.96,-228.03 362.7,-227.87 354.46,-227.62 346.26,-227.28 338.14,-226.86 330.12,-226.35 322.22,-225.77 314.47,-225.11 306.89,-224.37 299.49,-223.56 292.31,-222.68 285.36,-221.73 278.66,-220.72 272.22,-219.64 266.06,-218.5 260.19,-217.3 254.63,-216.04 249.39,-214.72 244.47,-213.34 239.89,-211.9 235.66,-210.4 231.77,-208.85 228.24,-207.25 225.07,-205.59 222.26,-203.88 219.81,-202.12 217.73,-200.3 216.01,-198.44 214.65,-196.53 213.66,-194.57 213.03,-192.57 212.75,-190.53 212.82,-188.45 213.25,-186.34 214.01,-184.19 215.12,-182.02 216.56,-179.83 218.33,-177.62 220.42,-175.39 222.82,-173.17 225.53,-170.94 228.55,-168.71 231.86,-166.5 235.45,-164.32 239.33,-162.15 243.48,-160.03 247.89,-157.94 252.56,-155.91 257.48,-153.94 262.64,-152.04 268.03,-150.21 273.63,-148.47 279.45,-146.82 285.47,-145.27 291.68,-143.83 298.07,-142.51 304.63,-141.31 311.34,-140.24 318.2,-139.3 325.18,-138.51 332.28,-137.87 339.47,-137.37 346.76,-137.04 354.11,-136.86 361.51,-136.85 368.95,-137 376.41,-137.32 383.86,-137.8 391.3,-138.44 398.69,-139.25 406.02,-140.23 413.27,-141.35 420.42,-142.64 427.44,-144.07 434.31,-145.65 441.02,-147.36 447.54,-149.21 453.85,-151.18 459.93,-153.26 465.75,-155.46 471.29,-157.75 476.54,-160.13 481.47,-162.59 486.07,-165.12 490.31,-167.7 494.19,-170.33"/>
<text text-anchor="middle" x="355.93" y="-181.77" font-family="sans-serif" font-size="16.00">GestionPromociones</text>
</g>
<!-- GestionInventario&#45;&gt;GestionPromociones -->
<g id="edge1" class="edge">
<title>GestionInventario&#45;&gt;GestionPromociones</title>
<path fill="none" stroke="black" stroke-width="2" d="M137.39,-287.66C137.23,-275.26 139.51,-262.42 146.93,-252.43 150.55,-247.56 202.61,-231.14 253.85,-215.93"/>
<text text-anchor="middle" x="222.43" y="-255.83" font-family="sans-serif" font-size="12.00"> &#160;&#160;&#160;&#160;&#160;&#160;&#160;&#160;&#160;&#160;&#160;&#160;&#160;&#160;&#160;&#160;&#160;&#160;&#160;&#160;&#160;&#160;&#160;&#160;&#160;&#160;&#160;&#160;&#160;&#160;&#160;&#160;&#160;&#160;&#160;&#160;&#160;&#160;&#160;</text>
<polygon fill="white" stroke="transparent" points="234.85,-205.93 234.85,-224.93 250.85,-224.93 250.85,-205.93 234.85,-205.93"/>
<polyline fill="none" stroke="black" points="250.85,-205.93 250.85,-224.93 "/>
<text text-anchor="start" x="237.85" y="-212.33" font-family="sans-serif" font-size="12.00">D</text>
<polygon fill="white" stroke="transparent" points="250.85,-205.93 250.85,-224.93 272.85,-224.93 272.85,-205.93 250.85,-205.93"/>
<polygon fill="none" stroke="black" points="250.85,-205.93 250.85,-224.93 272.85,-224.93 272.85,-205.93 250.85,-205.93"/>
<text text-anchor="start" x="253.85" y="-212.33" font-family="sans-serif" font-size="12.00">CF</text>
<polygon fill="white" stroke="transparent" points="130.39,-278.66 130.39,-295.66 144.39,-295.66 144.39,-278.66 130.39,-278.66"/>
<text text-anchor="start" x="132.39" y="-284.06" font-family="sans-serif" font-size="12.00">U</text>
</g>
<!-- GestionPagos -->
<g id="node3" class="node">
<title>GestionPagos</title>
<polygon fill="none" stroke="black" stroke-width="2" points="554.61,-0.26 561.68,-0.5 568.68,-0.86 575.58,-1.34 582.34,-1.93 588.95,-2.64 595.38,-3.46 601.6,-4.39 607.59,-5.43 613.32,-6.57 618.78,-7.82 623.95,-9.16 628.81,-10.61 633.34,-12.14 637.53,-13.76 641.37,-15.46 644.85,-17.24 647.96,-19.09 650.7,-21.01 653.06,-22.99 655.04,-25.03 656.64,-27.12 657.87,-29.26 658.73,-31.44 659.22,-33.65 659.35,-35.89 659.14,-38.15 658.58,-40.42 657.69,-42.71 656.49,-45 654.98,-47.29 653.18,-49.56 651.11,-51.82 648.78,-54.06 646.2,-56.27 643.39,-58.45 640.38,-60.59 637.16,-62.68 633.76,-64.72 630.2,-66.7 626.48,-68.62 622.62,-70.47 618.64,-72.25 614.55,-73.96 610.36,-75.57 606.08,-77.11 601.73,-78.55 597.3,-79.89 592.82,-81.14 588.29,-82.28 583.72,-83.32 579.11,-84.25 574.47,-85.07 569.81,-85.78 565.13,-86.37 560.43,-86.85 555.73,-87.21 551.01,-87.45 546.29,-87.57 541.57,-87.57 536.85,-87.45 532.13,-87.21 527.42,-86.85 522.73,-86.37 518.04,-85.78 513.38,-85.07 508.74,-84.25 504.14,-83.32 499.56,-82.28 495.03,-81.14 490.55,-79.89 486.13,-78.55 481.77,-77.11 477.5,-75.57 473.31,-73.96 469.21,-72.25 465.23,-70.47 461.38,-68.62 457.66,-66.7 454.1,-64.72 450.7,-62.68 447.48,-60.59 444.46,-58.45 441.66,-56.27 439.08,-54.06 436.75,-51.82 434.68,-49.56 432.88,-47.29 431.37,-45 430.17,-42.71 429.28,-40.42 428.72,-38.15 428.5,-35.89 428.63,-33.65 429.13,-31.44 429.98,-29.26 431.21,-27.12 432.82,-25.03 434.8,-22.99 437.16,-21.01 439.9,-19.09 443.01,-17.24 446.49,-15.46 450.33,-13.76 454.52,-12.14 459.05,-10.61 463.91,-9.16 469.07,-7.82 474.53,-6.57 480.27,-5.43 486.25,-4.39 492.47,-3.46 498.9,-2.64 505.51,-1.93 512.28,-1.34 519.18,-0.86 526.18,-0.5 533.25,-0.26 540.36,-0.14 547.49,-0.14 554.61,-0.26"/>
<text text-anchor="middle" x="543.93" y="-40.06" font-family="sans-serif" font-size="16.00">GestionPagos</text>
</g>
<!-- GestionInventario&#45;&gt;GestionPagos -->
<g id="edge3" class="edge">
<title>GestionInventario&#45;&gt;GestionPagos</title>
<path fill="none" stroke="black" stroke-width="2" d="M85.09,-289.76C67.84,-274.57 51.23,-255.8 41.93,-234.43 24.59,-194.61 14.12,-170.07 41.93,-136.71 90.86,-78.01 301.78,-56.71 434.16,-49.06"/>
<text text-anchor="middle" x="117.43" y="-182.47" font-family="sans-serif" font-size="12.00"> &#160;&#160;&#160;&#160;&#160;&#160;&#160;&#160;&#160;&#160;&#160;&#160;&#160;&#160;&#160;&#160;&#160;&#160;&#160;&#160;&#160;&#160;&#160;&#160;&#160;&#160;&#160;&#160;&#160;&#160;&#160;&#160;&#160;&#160;&#160;&#160;&#160;&#160;&#160;</text>
<polygon fill="white" stroke="transparent" points="411.16,-39.06 411.16,-58.06 427.16,-58.06 427.16,-39.06 411.16,-39.06"/>
<polyline fill="none" stroke="black" points="427.16,-39.06 427.16,-58.06 "/>
<text text-anchor="start" x="414.16" y="-45.46" font-family="sans-serif" font-size="12.00">D</text>
<polygon fill="white" stroke="transparent" points="427.16,-39.06 427.16,-58.06 457.16,-58.06 457.16,-39.06 427.16,-39.06"/>
<polygon fill="none" stroke="black" points="427.16,-39.06 427.16,-58.06 457.16,-58.06 457.16,-39.06 427.16,-39.06"/>
<text text-anchor="start" x="430.16" y="-45.46" font-family="sans-serif" font-size="12.00">ACL</text>
<polygon fill="white" stroke="transparent" points="78.09,-280.76 78.09,-297.76 92.09,-297.76 92.09,-280.76 78.09,-280.76"/>
<text text-anchor="start" x="80.09" y="-286.16" font-family="sans-serif" font-size="12.00">U</text>
</g>
<!-- GestionOrdenes -->
<g id="node4" class="node">
<title>GestionOrdenes</title>
<polygon fill="none" stroke="black" stroke-width="2" points="617.96,-144.77 625.38,-143.63 632.87,-142.62 640.43,-141.73 648,-140.96 655.58,-140.33 663.11,-139.83 670.59,-139.48 677.97,-139.26 685.25,-139.18 692.38,-139.25 699.34,-139.46 706.12,-139.82 712.7,-140.32 719.05,-140.96 725.15,-141.74 731,-142.65 736.57,-143.71 741.86,-144.89 746.86,-146.21 751.55,-147.64 755.92,-149.2 759.99,-150.86 763.73,-152.64 767.15,-154.51 770.24,-156.47 773.02,-158.53 775.47,-160.66 777.6,-162.86 779.42,-165.13 780.94,-167.45 782.15,-169.81 783.06,-172.22 783.68,-174.66 784.02,-177.11 784.09,-179.58 783.88,-182.06 783.42,-184.53 782.71,-187 781.76,-189.44 780.57,-191.85 779.15,-194.24 777.51,-196.58 775.65,-198.87 773.59,-201.11 771.32,-203.29 768.85,-205.4 766.2,-207.44 763.35,-209.4 760.32,-211.28 757.1,-213.08 753.71,-214.79 750.14,-216.4 746.39,-217.92 742.48,-219.34 738.39,-220.66 734.14,-221.87 729.73,-222.99 725.15,-223.99 720.41,-224.89 715.51,-225.69 710.46,-226.37 705.26,-226.95 699.91,-227.43 694.43,-227.79 688.81,-228.05 683.07,-228.21 677.22,-228.26 671.25,-228.2 665.19,-228.05 659.04,-227.8 652.82,-227.44 646.54,-226.99 640.22,-226.45 633.87,-225.81 627.51,-225.07 621.17,-224.25 614.84,-223.34 608.57,-222.34 602.37,-221.26 596.26,-220.09 590.26,-218.84 584.4,-217.52 578.71,-216.12 573.19,-214.64 567.89,-213.1 562.82,-211.48 558,-209.8 553.46,-208.05 549.22,-206.25 545.31,-204.38 541.73,-202.46 538.52,-200.5 535.69,-198.48 533.26,-196.42 531.24,-194.32 529.64,-192.18 528.49,-190.02 527.78,-187.83 527.52,-185.61 527.73,-183.38 528.4,-181.14 529.54,-178.9 531.14,-176.65 533.21,-174.41 535.73,-172.19 538.69,-169.98 542.1,-167.8 545.93,-165.65 550.17,-163.54 554.81,-161.47 559.82,-159.46 565.18,-157.5 570.88,-155.61 576.89,-153.8 583.19,-152.06 589.74,-150.4 596.52,-148.84 603.5,-147.38 610.66,-146.02 617.96,-144.77"/>
<text text-anchor="middle" x="664.93" y="-181.77" font-family="sans-serif" font-size="16.00">GestionOrdenes</text>
</g>
<!-- GestionInventario&#45;&gt;GestionOrdenes -->
<g id="edge2" class="edge">
<title>GestionInventario&#45;&gt;GestionOrdenes</title>
<path fill="none" stroke="black" stroke-width="2" d="M227.73,-295.89C274.97,-275.62 326.2,-253.88 331.93,-252.43 412.86,-231.92 437.2,-251.54 518.93,-234.43 539.81,-230.06 561.91,-223.75 582.41,-217.13"/>
<text text-anchor="middle" x="407.43" y="-255.83" font-family="sans-serif" font-size="12.00"> &#160;&#160;&#160;&#160;&#160;&#160;&#160;&#160;&#160;&#160;&#160;&#160;&#160;&#160;&#160;&#160;&#160;&#160;&#160;&#160;&#160;&#160;&#160;&#160;&#160;&#160;&#160;&#160;&#160;&#160;&#160;&#160;&#160;&#160;&#160;&#160;&#160;&#160;&#160;</text>
<polygon fill="white" stroke="transparent" points="575.41,-208.13 575.41,-225.13 589.41,-225.13 589.41,-208.13 575.41,-208.13"/>
<text text-anchor="start" x="577.41" y="-213.53" font-family="sans-serif" font-size="12.00">D</text>
<polygon fill="white" stroke="transparent" points="220.73,-286.89 220.73,-303.89 234.73,-303.89 234.73,-286.89 220.73,-286.89"/>
<text text-anchor="start" x="222.73" y="-292.29" font-family="sans-serif" font-size="12.00">U</text>
</g>
<!-- GestionPromociones&#45;&gt;GestionPagos -->
<g id="edge4" class="edge">
<title>GestionPromociones&#45;&gt;GestionPagos</title>
<path fill="none" stroke="black" stroke-width="2" d="M402.36,-139.45C415.1,-127.93 429.19,-115.93 442.93,-105.71 455.91,-96.06 470.49,-86.57 484.46,-78.06"/>
<text text-anchor="middle" x="518.43" y="-109.11" font-family="sans-serif" font-size="12.00"> &#160;&#160;&#160;&#160;&#160;&#160;&#160;&#160;&#160;&#160;&#160;&#160;&#160;&#160;&#160;&#160;&#160;&#160;&#160;&#160;&#160;&#160;&#160;&#160;&#160;&#160;&#160;&#160;&#160;&#160;&#160;&#160;&#160;&#160;&#160;&#160;&#160;&#160;&#160;</text>
<polygon fill="white" stroke="transparent" points="461.46,-68.06 461.46,-87.06 477.46,-87.06 477.46,-68.06 461.46,-68.06"/>
<polyline fill="none" stroke="black" points="477.46,-68.06 477.46,-87.06 "/>
<text text-anchor="start" x="464.46" y="-74.46" font-family="sans-serif" font-size="12.00">D</text>
<polygon fill="white" stroke="transparent" points="477.46,-68.06 477.46,-87.06 507.46,-87.06 507.46,-68.06 477.46,-68.06"/>
<polygon fill="none" stroke="black" points="477.46,-68.06 477.46,-87.06 507.46,-87.06 507.46,-68.06 477.46,-68.06"/>
<text text-anchor="start" x="480.46" y="-74.46" font-family="sans-serif" font-size="12.00">ACL</text>
<polygon fill="white" stroke="transparent" points="395.36,-130.45 395.36,-147.45 409.36,-147.45 409.36,-130.45 395.36,-130.45"/>
<text text-anchor="start" x="397.36" y="-135.85" font-family="sans-serif" font-size="12.00">U</text>
</g>
<!-- GestionOrdenes&#45;&gt;GestionPagos -->
<g id="edge5" class="edge">
<title>GestionOrdenes&#45;&gt;GestionPagos</title>
<path fill="none" stroke="black" stroke-width="2" d="M628.95,-143.03C612.93,-124.53 594.14,-102.84 578.31,-84.56"/>
<text text-anchor="middle" x="680.43" y="-109.11" font-family="sans-serif" font-size="12.00"> &#160;&#160;&#160;&#160;&#160;&#160;&#160;&#160;&#160;&#160;&#160;&#160;&#160;&#160;&#160;&#160;&#160;&#160;&#160;&#160;&#160;&#160;&#160;&#160;&#160;&#160;&#160;&#160;&#160;&#160;&#160;&#160;&#160;&#160;&#160;&#160;&#160;&#160;&#160;</text>
<polygon fill="white" stroke="transparent" points="555.31,-74.56 555.31,-93.56 571.31,-93.56 571.31,-74.56 555.31,-74.56"/>
<polyline fill="none" stroke="black" points="571.31,-74.56 571.31,-93.56 "/>
<text text-anchor="start" x="558.31" y="-80.96" font-family="sans-serif" font-size="12.00">D</text>
<polygon fill="white" stroke="transparent" points="571.31,-74.56 571.31,-93.56 601.31,-93.56 601.31,-74.56 571.31,-74.56"/>
<polygon fill="none" stroke="black" points="571.31,-74.56 571.31,-93.56 601.31,-93.56 601.31,-74.56 571.31,-74.56"/>
<text text-anchor="start" x="574.31" y="-80.96" font-family="sans-serif" font-size="12.00">ACL</text>
<polygon fill="white" stroke="transparent" points="621.95,-134.03 621.95,-151.03 635.95,-151.03 635.95,-134.03 621.95,-134.03"/>
<text text-anchor="start" x="623.95" y="-139.43" font-family="sans-serif" font-size="12.00">U</text>
</g>
<!-- GestionUsuarios -->
<g id="node5" class="node">
<title>GestionUsuarios</title>
<polygon fill="none" stroke="black" stroke-width="2" points="573.22,-303.71 578.44,-301.52 583.89,-299.42 589.55,-297.41 595.39,-295.52 601.4,-293.75 607.55,-292.1 613.82,-290.58 620.2,-289.2 626.65,-287.97 633.16,-286.88 639.7,-285.95 646.27,-285.17 652.83,-284.56 659.37,-284.1 665.87,-283.81 672.31,-283.68 678.69,-283.71 684.97,-283.91 691.16,-284.27 697.22,-284.78 703.16,-285.45 708.96,-286.27 714.61,-287.23 720.09,-288.33 725.41,-289.57 730.54,-290.94 735.49,-292.42 740.24,-294.03 744.79,-295.73 749.13,-297.54 753.26,-299.43 757.17,-301.41 760.86,-303.46 764.32,-305.58 767.56,-307.75 770.55,-309.97 773.32,-312.22 775.84,-314.51 778.11,-316.82 780.15,-319.14 781.93,-321.48 783.46,-323.81 784.73,-326.13 785.75,-328.44 786.5,-330.72 786.99,-332.98 787.22,-335.21 787.18,-337.4 786.86,-339.55 786.27,-341.65 785.41,-343.7 784.27,-345.7 782.85,-347.65 781.14,-349.53 779.16,-351.35 776.89,-353.11 774.34,-354.8 771.51,-356.42 768.4,-357.98 765.01,-359.47 761.34,-360.88 757.4,-362.23 753.19,-363.51 748.73,-364.71 744,-365.84 739.03,-366.9 733.82,-367.89 728.38,-368.8 722.72,-369.64 716.86,-370.4 710.8,-371.09 704.57,-371.7 698.17,-372.23 691.63,-372.69 684.97,-373.06 678.19,-373.36 671.33,-373.57 664.4,-373.7 657.42,-373.74 650.42,-373.69 643.42,-373.55 636.44,-373.32 629.51,-373 622.65,-372.59 615.88,-372.07 609.24,-371.46 602.74,-370.75 596.41,-369.94 590.27,-369.03 584.35,-368.01 578.67,-366.89 573.25,-365.67 568.11,-364.35 563.27,-362.92 558.76,-361.39 554.58,-359.76 550.75,-358.04 547.3,-356.21 544.23,-354.3 541.55,-352.3 539.28,-350.21 537.42,-348.05 535.98,-345.81 534.97,-343.5 534.38,-341.13 534.21,-338.71 534.48,-336.23 535.17,-333.72 536.28,-331.17 537.8,-328.61 539.72,-326.02 542.04,-323.43 544.75,-320.85 547.83,-318.28 551.26,-315.73 555.04,-313.22 559.14,-310.75 563.55,-308.34 568.25,-305.99 573.22,-303.71"/>
<text text-anchor="middle" x="667.93" y="-328.38" font-family="sans-serif" font-size="16.00">GestionUsuarios</text>
</g>
<!-- GestionUsuarios&#45;&gt;GestionPromociones -->
<g id="edge7" class="edge">
<title>GestionUsuarios&#45;&gt;GestionPromociones</title>
<path fill="none" stroke="black" stroke-width="2" d="M586.9,-298.28C562.63,-288.09 536.07,-276.6 511.93,-265.43 485.35,-253.13 456.64,-238.9 431.19,-225.94"/>
<text text-anchor="middle" x="587.43" y="-255.83" font-family="sans-serif" font-size="12.00"> &#160;&#160;&#160;&#160;&#160;&#160;&#160;&#160;&#160;&#160;&#160;&#160;&#160;&#160;&#160;&#160;&#160;&#160;&#160;&#160;&#160;&#160;&#160;&#160;&#160;&#160;&#160;&#160;&#160;&#160;&#160;&#160;&#160;&#160;&#160;&#160;&#160;&#160;&#160;</text>
<polygon fill="white" stroke="transparent" points="424.19,-216.94 424.19,-233.94 438.19,-233.94 438.19,-216.94 424.19,-216.94"/>
<text text-anchor="start" x="426.19" y="-222.34" font-family="sans-serif" font-size="12.00">D</text>
<polygon fill="white" stroke="transparent" points="579.9,-289.28 579.9,-306.28 593.9,-306.28 593.9,-289.28 579.9,-289.28"/>
<text text-anchor="start" x="581.9" y="-294.68" font-family="sans-serif" font-size="12.00">U</text>
</g>
<!-- GestionUsuarios&#45;&gt;GestionPagos -->
<g id="edge8" class="edge">
<title>GestionUsuarios&#45;&gt;GestionPagos</title>
<path fill="none" stroke="black" stroke-width="2" d="M768.44,-308.02C789.52,-298.37 809.19,-284.72 821.93,-265.43 839.23,-239.23 950.42,-359.35 810.93,-136.71 777.55,-83.44 710.6,-60.49 652.1,-50.85"/>
<text text-anchor="middle" x="943.43" y="-182.47" font-family="sans-serif" font-size="12.00"> &#160;&#160;&#160;&#160;&#160;&#160;&#160;&#160;&#160;&#160;&#160;&#160;&#160;&#160;&#160;&#160;&#160;&#160;&#160;&#160;&#160;&#160;&#160;&#160;&#160;&#160;&#160;&#160;&#160;&#160;&#160;&#160;&#160;&#160;&#160;&#160;&#160;&#160;&#160;</text>
<polygon fill="white" stroke="transparent" points="629.1,-40.85 629.1,-59.85 645.1,-59.85 645.1,-40.85 629.1,-40.85"/>
<polyline fill="none" stroke="black" points="645.1,-40.85 645.1,-59.85 "/>
<text text-anchor="start" x="632.1" y="-47.25" font-family="sans-serif" font-size="12.00">D</text>
<polygon fill="white" stroke="transparent" points="645.1,-40.85 645.1,-59.85 675.1,-59.85 675.1,-40.85 645.1,-40.85"/>
<polygon fill="none" stroke="black" points="645.1,-40.85 645.1,-59.85 675.1,-59.85 675.1,-40.85 645.1,-40.85"/>
<text text-anchor="start" x="648.1" y="-47.25" font-family="sans-serif" font-size="12.00">ACL</text>
<polygon fill="white" stroke="transparent" points="761.44,-299.02 761.44,-316.02 775.44,-316.02 775.44,-299.02 761.44,-299.02"/>
<text text-anchor="start" x="763.44" y="-304.42" font-family="sans-serif" font-size="12.00">U</text>
</g>
<!-- GestionUsuarios&#45;&gt;GestionOrdenes -->
<g id="edge6" class="edge">
<title>GestionUsuarios&#45;&gt;GestionOrdenes</title>
<path fill="none" stroke="black" stroke-width="2" d="M666.94,-283.43C666.57,-265.66 666.15,-245.64 665.8,-228.44"/>
<text text-anchor="middle" x="742.43" y="-255.83" font-family="sans-serif" font-size="12.00"> &#160;&#160;&#160;&#160;&#160;&#160;&#160;&#160;&#160;&#160;&#160;&#160;&#160;&#160;&#160;&#160;&#160;&#160;&#160;&#160;&#160;&#160;&#160;&#160;&#160;&#160;&#160;&#160;&#160;&#160;&#160;&#160;&#160;&#160;&#160;&#160;&#160;&#160;&#160;</text>
<polygon fill="white" stroke="transparent" points="642.8,-218.44 642.8,-237.44 658.8,-237.44 658.8,-218.44 642.8,-218.44"/>
<polyline fill="none" stroke="black" points="658.8,-218.44 658.8,-237.44 "/>
<text text-anchor="start" x="645.8" y="-224.84" font-family="sans-serif" font-size="12.00">D</text>
<polygon fill="white" stroke="transparent" points="658.8,-218.44 658.8,-237.44 688.8,-237.44 688.8,-218.44 658.8,-218.44"/>
<polygon fill="none" stroke="black" points="658.8,-218.44 658.8,-237.44 688.8,-237.44 688.8,-218.44 658.8,-218.44"/>
<text text-anchor="start" x="661.8" y="-224.84" font-family="sans-serif" font-size="12.00">ACL</text>
<polygon fill="white" stroke="transparent" points="659.94,-274.43 659.94,-291.43 673.94,-291.43 673.94,-274.43 659.94,-274.43"/>
<text text-anchor="start" x="661.94" y="-279.83" font-family="sans-serif" font-size="12.00">U</text>
</g>
</g>
</svg>
