<svg width="2000px" height="1854px"
 viewBox="0.00 0.00 740.00 685.77" xmlns="http://www.w3.org/2000/svg" xmlns:xlink="http://www.w3.org/1999/xlink">
<g id="graph0" class="graph" transform="scale(1.0 1.0) rotate(0) translate(4 681.77)">
<title>ContextMapGraph</title>
<polygon fill="white" stroke="transparent" points="-4,4 -4,-681.77 736,-681.77 736,4 -4,4"/>
<!-- Inventario -->
<g id="node1" class="node">
<title>Inventario</title>
<polygon fill="none" stroke="black" stroke-width="2" points="103.69,-652.72 100.5,-650.32 97.54,-647.86 94.81,-645.36 92.34,-642.84 90.14,-640.29 88.21,-637.73 86.56,-635.16 85.2,-632.61 84.13,-630.07 83.37,-627.55 82.92,-625.07 82.78,-622.63 82.95,-620.23 83.42,-617.89 84.21,-615.61 85.31,-613.4 86.71,-611.26 88.4,-609.2 90.39,-607.22 92.66,-605.32 95.2,-603.51 98.01,-601.8 101.07,-600.18 104.36,-598.65 107.89,-597.22 111.63,-595.9 115.56,-594.66 119.67,-593.53 123.95,-592.5 128.38,-591.57 132.94,-590.73 137.62,-590 142.39,-589.36 147.24,-588.81 152.15,-588.36 157.1,-588 162.08,-587.73 167.07,-587.56 172.05,-587.47 177.01,-587.47 181.92,-587.55 186.79,-587.73 191.59,-587.98 196.3,-588.32 200.92,-588.73 205.43,-589.23 209.82,-589.81 214.09,-590.47 218.21,-591.21 222.19,-592.03 226.01,-592.93 229.67,-593.9 233.16,-594.95 236.48,-596.08 239.62,-597.29 242.57,-598.57 245.34,-599.93 247.91,-601.36 250.3,-602.87 252.49,-604.45 254.49,-606.1 256.3,-607.83 257.91,-609.62 259.32,-611.49 260.54,-613.41 261.57,-615.4 262.41,-617.45 263.05,-619.55 263.51,-621.71 263.77,-623.91 263.85,-626.16 263.74,-628.44 263.44,-630.75 262.96,-633.09 262.3,-635.45 261.46,-637.83 260.44,-640.2 259.24,-642.58 257.86,-644.95 256.31,-647.29 254.58,-649.61 252.68,-651.9 250.6,-654.14 248.36,-656.34 245.94,-658.47 243.36,-660.53 240.62,-662.51 237.72,-664.41 234.65,-666.21 231.44,-667.91 228.07,-669.49 224.55,-670.96 220.89,-672.3 217.1,-673.52 213.17,-674.59 209.12,-675.52 204.96,-676.3 200.68,-676.93 196.31,-677.4 191.85,-677.72 187.31,-677.87 182.69,-677.86 178.03,-677.68 173.31,-677.35 168.57,-676.85 163.8,-676.19 159.03,-675.37 154.27,-674.4 149.54,-673.28 144.85,-672.01 140.21,-670.6 135.65,-669.05 131.17,-667.38 126.8,-665.58 122.55,-663.67 118.44,-661.66 114.48,-659.55 110.69,-657.35 107.09,-655.07 103.69,-652.72"/>
<text text-anchor="middle" x="179" y="-625.36" font-family="sans-serif" font-size="16.00">Inventario</text>
</g>
<!-- Pagos -->
<g id="node2" class="node">
<title>Pagos</title>
<polygon fill="none" stroke="black" stroke-width="2" points="347.39,-75.01 344.9,-77.33 342.27,-79.57 339.53,-81.7 336.68,-83.74 333.72,-85.66 330.69,-87.46 327.57,-89.13 324.39,-90.67 321.15,-92.06 317.87,-93.3 314.55,-94.4 311.2,-95.33 307.84,-96.11 304.48,-96.73 301.12,-97.18 297.77,-97.46 294.44,-97.59 291.13,-97.54 287.87,-97.34 284.65,-96.97 281.48,-96.45 278.37,-95.77 275.32,-94.95 272.35,-93.98 269.44,-92.87 266.62,-91.63 263.89,-90.27 261.24,-88.78 258.69,-87.19 256.23,-85.49 253.88,-83.69 251.63,-81.81 249.49,-79.85 247.47,-77.82 245.55,-75.73 243.76,-73.59 242.08,-71.4 240.53,-69.17 239.1,-66.92 237.8,-64.64 236.62,-62.36 235.58,-60.06 234.67,-57.77 233.9,-55.49 233.27,-53.22 232.78,-50.98 232.43,-48.75 232.22,-46.56 232.16,-44.41 232.25,-42.29 232.49,-40.22 232.88,-38.19 233.42,-36.21 234.11,-34.29 234.95,-32.42 235.95,-30.61 237.11,-28.86 238.42,-27.16 239.88,-25.53 241.49,-23.96 243.26,-22.45 245.18,-21.01 247.24,-19.63 249.44,-18.32 251.79,-17.07 254.28,-15.89 256.89,-14.77 259.64,-13.73 262.5,-12.75 265.48,-11.85 268.57,-11.01 271.76,-10.25 275.04,-9.56 278.41,-8.94 281.85,-8.4 285.35,-7.94 288.91,-7.56 292.52,-7.27 296.15,-7.06 299.81,-6.93 303.48,-6.9 307.15,-6.95 310.8,-7.11 314.42,-7.35 318,-7.7 321.53,-8.15 325,-8.7 328.39,-9.36 331.69,-10.12 334.88,-10.99 337.96,-11.97 340.92,-13.06 343.74,-14.26 346.41,-15.57 348.93,-16.99 351.28,-18.51 353.46,-20.14 355.45,-21.88 357.25,-23.72 358.86,-25.65 360.26,-27.68 361.45,-29.8 362.44,-32.01 363.21,-34.29 363.76,-36.64 364.1,-39.06 364.22,-41.54 364.12,-44.07 363.81,-46.65 363.28,-49.25 362.55,-51.88 361.61,-54.53 360.46,-57.18 359.13,-59.82 357.6,-62.45 355.89,-65.05 354.01,-67.62 351.96,-70.14 349.75,-72.61 347.39,-75.01"/>
<text text-anchor="middle" x="295" y="-45.06" font-family="sans-serif" font-size="16.00">Pagos</text>
</g>
<!-- Inventario&#45;&gt;Pagos -->
<g id="edge1" class="edge">
<title>Inventario&#45;&gt;Pagos</title>
<path fill="none" stroke="black" stroke-width="2" d="M100.49,-600.27C52.39,-577.62 0,-540.29 0,-485.21 0,-485.21 0,-485.21 0,-193.02 0,-90.26 146.65,-61.24 233.16,-53.06"/>
<text text-anchor="middle" x="75.5" y="-335.99" font-family="sans-serif" font-size="12.00"> &#160;&#160;&#160;&#160;&#160;&#160;&#160;&#160;&#160;&#160;&#160;&#160;&#160;&#160;&#160;&#160;&#160;&#160;&#160;&#160;&#160;&#160;&#160;&#160;&#160;&#160;&#160;&#160;&#160;&#160;&#160;&#160;&#160;&#160;&#160;&#160;&#160;&#160;&#160;</text>
<polygon fill="white" stroke="transparent" points="210.16,-43.06 210.16,-62.06 226.16,-62.06 226.16,-43.06 210.16,-43.06"/>
<polyline fill="none" stroke="black" points="226.16,-43.06 226.16,-62.06 "/>
<text text-anchor="start" x="213.16" y="-49.46" font-family="sans-serif" font-size="12.00">D</text>
<polygon fill="white" stroke="transparent" points="226.16,-43.06 226.16,-62.06 256.16,-62.06 256.16,-43.06 226.16,-43.06"/>
<polygon fill="none" stroke="black" points="226.16,-43.06 226.16,-62.06 256.16,-62.06 256.16,-43.06 226.16,-43.06"/>
<text text-anchor="start" x="229.16" y="-49.46" font-family="sans-serif" font-size="12.00">ACL</text>
<polygon fill="white" stroke="transparent" points="93.49,-591.27 93.49,-608.27 107.49,-608.27 107.49,-591.27 93.49,-591.27"/>
<text text-anchor="start" x="95.49" y="-596.67" font-family="sans-serif" font-size="12.00">U</text>
</g>
<!-- Ventas -->
<g id="node3" class="node">
<title>Ventas</title>
<polygon fill="none" stroke="black" stroke-width="2" points="164.35,-226.19 160.92,-224.29 157.65,-222.31 154.54,-220.26 151.61,-218.14 148.88,-215.98 146.35,-213.77 144.03,-211.52 141.94,-209.24 140.08,-206.93 138.46,-204.61 137.09,-202.29 135.97,-199.96 135.1,-197.64 134.5,-195.34 134.16,-193.05 134.08,-190.79 134.26,-188.56 134.7,-186.36 135.39,-184.21 136.34,-182.1 137.53,-180.04 138.96,-178.04 140.62,-176.1 142.5,-174.21 144.6,-172.4 146.9,-170.65 149.39,-168.97 152.06,-167.36 154.89,-165.82 157.88,-164.37 161.01,-162.99 164.27,-161.69 167.64,-160.46 171.11,-159.33 174.66,-158.27 178.29,-157.3 181.97,-156.41 185.7,-155.6 189.46,-154.89 193.24,-154.26 197.02,-153.72 200.8,-153.26 204.56,-152.9 208.29,-152.62 211.99,-152.44 215.63,-152.34 219.22,-152.34 222.74,-152.43 226.19,-152.62 229.56,-152.9 232.84,-153.27 236.04,-153.74 239.13,-154.31 242.12,-154.97 245.01,-155.73 247.79,-156.58 250.46,-157.54 253.02,-158.58 255.46,-159.73 257.79,-160.97 260,-162.3 262.09,-163.73 264.06,-165.25 265.91,-166.85 267.63,-168.55 269.24,-170.33 270.72,-172.19 272.08,-174.12 273.32,-176.13 274.43,-178.21 275.42,-180.36 276.28,-182.56 277.01,-184.82 277.62,-187.13 278.09,-189.48 278.43,-191.86 278.63,-194.27 278.7,-196.71 278.63,-199.15 278.41,-201.6 278.05,-204.05 277.55,-206.48 276.9,-208.9 276.09,-211.29 275.14,-213.64 274.02,-215.95 272.75,-218.2 271.32,-220.39 269.73,-222.5 267.98,-224.54 266.07,-226.49 264,-228.35 261.77,-230.1 259.38,-231.75 256.83,-233.28 254.13,-234.68 251.28,-235.96 248.28,-237.11 245.14,-238.12 241.87,-238.98 238.47,-239.71 234.95,-240.28 231.32,-240.71 227.59,-240.98 223.77,-241.11 219.86,-241.08 215.89,-240.9 211.86,-240.57 207.79,-240.09 203.69,-239.47 199.57,-238.71 195.45,-237.8 191.35,-236.77 187.28,-235.6 183.25,-234.31 179.29,-232.9 175.4,-231.37 171.6,-229.74 167.91,-228.01 164.35,-226.19"/>
<text text-anchor="middle" x="212" y="-190.22" font-family="sans-serif" font-size="16.00">Ventas</text>
</g>
<!-- Inventario&#45;&gt;Ventas -->
<g id="edge2" class="edge">
<title>Inventario&#45;&gt;Ventas</title>
<path fill="none" stroke="black" stroke-width="2" d="M181.01,-587.44C184.54,-519.39 192.57,-378.31 204,-259.31 204.6,-253.04 205.32,-246.44 206.08,-239.95"/>
<text text-anchor="middle" x="267.5" y="-409.26" font-family="sans-serif" font-size="12.00"> &#160;&#160;&#160;&#160;&#160;&#160;&#160;&#160;&#160;&#160;&#160;&#160;&#160;&#160;&#160;&#160;&#160;&#160;&#160;&#160;&#160;&#160;&#160;&#160;&#160;&#160;&#160;&#160;&#160;&#160;&#160;&#160;&#160;&#160;&#160;&#160;&#160;&#160;&#160;</text>
<polygon fill="white" stroke="transparent" points="199.08,-230.95 199.08,-247.95 213.08,-247.95 213.08,-230.95 199.08,-230.95"/>
<text text-anchor="start" x="201.08" y="-236.35" font-family="sans-serif" font-size="12.00">D</text>
<polygon fill="white" stroke="transparent" points="174.01,-578.44 174.01,-595.44 188.01,-595.44 188.01,-578.44 174.01,-578.44"/>
<text text-anchor="start" x="176.01" y="-583.84" font-family="sans-serif" font-size="12.00">U</text>
</g>
<!-- Promociones -->
<g id="node4" class="node">
<title>Promociones</title>
<polygon fill="none" stroke="black" stroke-width="2" points="261.66,-483.72 261.64,-480.86 261.9,-478.02 262.45,-475.2 263.29,-472.43 264.42,-469.72 265.82,-467.06 267.51,-464.48 269.48,-461.99 271.71,-459.59 274.22,-457.28 276.98,-455.09 279.99,-453.02 283.24,-451.06 286.73,-449.24 290.45,-447.55 294.38,-445.99 298.52,-444.58 302.84,-443.32 307.35,-442.2 312.02,-441.22 316.85,-440.39 321.82,-439.71 326.92,-439.18 332.12,-438.79 337.43,-438.54 342.81,-438.43 348.26,-438.46 353.76,-438.62 359.29,-438.9 364.84,-439.31 370.4,-439.83 375.94,-440.47 381.44,-441.21 386.91,-442.05 392.31,-442.99 397.63,-444.01 402.87,-445.12 407.99,-446.31 412.99,-447.57 417.86,-448.9 422.58,-450.28 427.13,-451.73 431.51,-453.22 435.71,-454.76 439.7,-456.35 443.48,-457.97 447.05,-459.63 450.38,-461.32 453.48,-463.04 456.33,-464.79 458.92,-466.56 461.26,-468.35 463.33,-470.16 465.12,-471.99 466.65,-473.83 467.89,-475.69 468.85,-477.57 469.53,-479.45 469.93,-481.35 470.04,-483.26 469.87,-485.17 469.41,-487.09 468.67,-489.02 467.66,-490.95 466.37,-492.89 464.81,-494.82 462.99,-496.75 460.91,-498.68 458.57,-500.6 455.99,-502.51 453.16,-504.4 450.11,-506.28 446.83,-508.13 443.34,-509.95 439.65,-511.75 435.76,-513.5 431.69,-515.21 427.44,-516.87 423.03,-518.47 418.48,-520.02 413.79,-521.49 408.97,-522.89 404.03,-524.21 399,-525.43 393.88,-526.57 388.69,-527.6 383.44,-528.52 378.14,-529.32 372.81,-530 367.46,-530.56 362.1,-530.98 356.75,-531.27 351.43,-531.41 346.14,-531.4 340.9,-531.25 335.73,-530.94 330.63,-530.48 325.62,-529.86 320.72,-529.09 315.94,-528.15 311.28,-527.06 306.77,-525.82 302.41,-524.43 298.22,-522.89 294.2,-521.2 290.38,-519.38 286.75,-517.42 283.34,-515.33 280.14,-513.13 277.17,-510.81 274.44,-508.4 271.96,-505.89 269.72,-503.29 267.75,-500.63 266.04,-497.9 264.61,-495.12 263.45,-492.3 262.57,-489.45 261.97,-486.59 261.66,-483.72"/>
<text text-anchor="middle" x="366" y="-480.41" font-family="sans-serif" font-size="16.00">Promociones</text>
</g>
<!-- Inventario&#45;&gt;Promociones -->
<g id="edge3" class="edge">
<title>Inventario&#45;&gt;Promociones</title>
<path fill="none" stroke="black" stroke-width="2" d="M225.71,-592.46C251.56,-572.69 283.85,-548.01 310.93,-527.31"/>
<text text-anchor="middle" x="353.5" y="-552.96" font-family="sans-serif" font-size="12.00"> &#160;&#160;&#160;&#160;&#160;&#160;&#160;&#160;&#160;&#160;&#160;&#160;&#160;&#160;&#160;&#160;&#160;&#160;&#160;&#160;&#160;&#160;&#160;&#160;&#160;&#160;&#160;&#160;&#160;&#160;&#160;&#160;&#160;&#160;&#160;&#160;&#160;&#160;&#160;</text>
<polygon fill="white" stroke="transparent" points="291.93,-517.31 291.93,-536.31 307.93,-536.31 307.93,-517.31 291.93,-517.31"/>
<polyline fill="none" stroke="black" points="307.93,-517.31 307.93,-536.31 "/>
<text text-anchor="start" x="294.93" y="-523.71" font-family="sans-serif" font-size="12.00">D</text>
<polygon fill="white" stroke="transparent" points="307.93,-517.31 307.93,-536.31 329.93,-536.31 329.93,-517.31 307.93,-517.31"/>
<polygon fill="none" stroke="black" points="307.93,-517.31 307.93,-536.31 329.93,-536.31 329.93,-517.31 307.93,-517.31"/>
<text text-anchor="start" x="310.93" y="-523.71" font-family="sans-serif" font-size="12.00">CF</text>
<polygon fill="white" stroke="transparent" points="218.71,-583.46 218.71,-600.46 232.71,-600.46 232.71,-583.46 218.71,-583.46"/>
<text text-anchor="start" x="220.71" y="-588.86" font-family="sans-serif" font-size="12.00">U</text>
</g>
<!-- Ventas&#45;&gt;Pagos -->
<g id="edge4" class="edge">
<title>Ventas&#45;&gt;Pagos</title>
<path fill="none" stroke="black" stroke-width="2" d="M206.05,-152.56C205.9,-140.21 207.53,-126.94 213,-115.72 220.44,-100.46 233.3,-87.59 246.65,-77.4"/>
<text text-anchor="middle" x="288.5" y="-119.12" font-family="sans-serif" font-size="12.00"> &#160;&#160;&#160;&#160;&#160;&#160;&#160;&#160;&#160;&#160;&#160;&#160;&#160;&#160;&#160;&#160;&#160;&#160;&#160;&#160;&#160;&#160;&#160;&#160;&#160;&#160;&#160;&#160;&#160;&#160;&#160;&#160;&#160;&#160;&#160;&#160;&#160;&#160;&#160;</text>
<polygon fill="white" stroke="transparent" points="223.65,-67.4 223.65,-86.4 239.65,-86.4 239.65,-67.4 223.65,-67.4"/>
<polyline fill="none" stroke="black" points="239.65,-67.4 239.65,-86.4 "/>
<text text-anchor="start" x="226.65" y="-73.8" font-family="sans-serif" font-size="12.00">D</text>
<polygon fill="white" stroke="transparent" points="239.65,-67.4 239.65,-86.4 269.65,-86.4 269.65,-67.4 239.65,-67.4"/>
<polygon fill="none" stroke="black" points="239.65,-67.4 239.65,-86.4 269.65,-86.4 269.65,-67.4 239.65,-67.4"/>
<text text-anchor="start" x="242.65" y="-73.8" font-family="sans-serif" font-size="12.00">ACL</text>
<polygon fill="white" stroke="transparent" points="199.05,-143.56 199.05,-160.56 213.05,-160.56 213.05,-143.56 199.05,-143.56"/>
<text text-anchor="start" x="201.05" y="-148.96" font-family="sans-serif" font-size="12.00">U</text>
</g>
<!-- Promociones&#45;&gt;Pagos -->
<g id="edge5" class="edge">
<title>Promociones&#45;&gt;Pagos</title>
<path fill="none" stroke="black" stroke-width="2" d="M455.87,-464.47C480.73,-454.91 505.19,-440.51 521,-418.86 592.44,-321.04 603.83,-247.09 536,-146.72 497.18,-89.28 418.06,-65.9 361.05,-56.38"/>
<text text-anchor="middle" x="656.5" y="-262.71" font-family="sans-serif" font-size="12.00"> &#160;&#160;&#160;&#160;&#160;&#160;&#160;&#160;&#160;&#160;&#160;&#160;&#160;&#160;&#160;&#160;&#160;&#160;&#160;&#160;&#160;&#160;&#160;&#160;&#160;&#160;&#160;&#160;&#160;&#160;&#160;&#160;&#160;&#160;&#160;&#160;&#160;&#160;&#160;</text>
<polygon fill="white" stroke="transparent" points="338.05,-46.38 338.05,-65.38 354.05,-65.38 354.05,-46.38 338.05,-46.38"/>
<polyline fill="none" stroke="black" points="354.05,-46.38 354.05,-65.38 "/>
<text text-anchor="start" x="341.05" y="-52.78" font-family="sans-serif" font-size="12.00">D</text>
<polygon fill="white" stroke="transparent" points="354.05,-46.38 354.05,-65.38 384.05,-65.38 384.05,-46.38 354.05,-46.38"/>
<polygon fill="none" stroke="black" points="354.05,-46.38 354.05,-65.38 384.05,-65.38 384.05,-46.38 354.05,-46.38"/>
<text text-anchor="start" x="357.05" y="-52.78" font-family="sans-serif" font-size="12.00">ACL</text>
<polygon fill="white" stroke="transparent" points="448.87,-455.47 448.87,-472.47 462.87,-472.47 462.87,-455.47 448.87,-455.47"/>
<text text-anchor="start" x="450.87" y="-460.87" font-family="sans-serif" font-size="12.00">U</text>
</g>
<!-- Usuarios -->
<g id="node5" class="node">
<title>Usuarios</title>
<polygon fill="none" stroke="black" stroke-width="2" points="295.06,-359.86 292.49,-357.36 290.13,-354.83 288,-352.26 286.09,-349.67 284.43,-347.07 283.01,-344.46 281.85,-341.87 280.95,-339.29 280.32,-336.74 279.96,-334.22 279.86,-331.74 280.05,-329.32 280.5,-326.95 281.23,-324.65 282.24,-322.42 283.51,-320.26 285.04,-318.19 286.83,-316.2 288.88,-314.31 291.17,-312.51 293.69,-310.81 296.44,-309.2 299.41,-307.7 302.58,-306.3 305.94,-305.01 309.48,-303.82 313.19,-302.73 317.04,-301.75 321.03,-300.88 325.15,-300.1 329.37,-299.43 333.68,-298.86 338.06,-298.39 342.5,-298.02 346.99,-297.74 351.5,-297.55 356.03,-297.46 360.55,-297.45 365.05,-297.54 369.53,-297.71 373.95,-297.96 378.32,-298.29 382.61,-298.71 386.82,-299.21 390.93,-299.78 394.94,-300.43 398.83,-301.15 402.59,-301.95 406.21,-302.83 409.7,-303.77 413.03,-304.79 416.21,-305.88 419.22,-307.04 422.07,-308.27 424.74,-309.57 427.24,-310.95 429.57,-312.39 431.71,-313.9 433.67,-315.47 435.44,-317.11 437.04,-318.82 438.44,-320.59 439.67,-322.43 440.71,-324.32 441.56,-326.27 442.23,-328.28 442.73,-330.34 443.04,-332.44 443.17,-334.59 443.13,-336.79 442.91,-339.01 442.52,-341.27 441.96,-343.55 441.23,-345.86 440.33,-348.17 439.27,-350.49 438.04,-352.81 436.66,-355.13 435.11,-357.42 433.41,-359.7 431.56,-361.94 429.55,-364.14 427.39,-366.29 425.09,-368.39 422.64,-370.41 420.05,-372.37 417.32,-374.24 414.46,-376.02 411.47,-377.7 408.35,-379.27 405.1,-380.73 401.75,-382.06 398.27,-383.27 394.7,-384.34 391.02,-385.27 387.25,-386.05 383.39,-386.68 379.46,-387.16 375.45,-387.48 371.39,-387.64 367.27,-387.63 363.11,-387.46 358.92,-387.13 354.72,-386.64 350.5,-385.98 346.28,-385.16 342.09,-384.19 337.92,-383.06 333.79,-381.79 329.72,-380.37 325.72,-378.81 321.8,-377.13 317.98,-375.32 314.27,-373.39 310.68,-371.35 307.23,-369.21 303.93,-366.99 300.79,-364.68 297.83,-362.3 295.06,-359.86"/>
<text text-anchor="middle" x="366" y="-335.29" font-family="sans-serif" font-size="16.00">Usuarios</text>
</g>
<!-- Promociones&#45;&gt;Usuarios -->
<g id="edge6" class="edge">
<title>Promociones&#45;&gt;Usuarios</title>
<path fill="none" stroke="black" stroke-width="2" d="M366,-439.1C366,-422.84 366,-404.35 366,-387.78"/>
<text text-anchor="middle" x="441.5" y="-409.26" font-family="sans-serif" font-size="12.00"> &#160;&#160;&#160;&#160;&#160;&#160;&#160;&#160;&#160;&#160;&#160;&#160;&#160;&#160;&#160;&#160;&#160;&#160;&#160;&#160;&#160;&#160;&#160;&#160;&#160;&#160;&#160;&#160;&#160;&#160;&#160;&#160;&#160;&#160;&#160;&#160;&#160;&#160;&#160;</text>
<polygon fill="white" stroke="transparent" points="359,-378.78 359,-395.78 373,-395.78 373,-378.78 359,-378.78"/>
<text text-anchor="start" x="361" y="-384.18" font-family="sans-serif" font-size="12.00">D</text>
<polygon fill="white" stroke="transparent" points="359,-430.1 359,-447.1 373,-447.1 373,-430.1 359,-430.1"/>
<text text-anchor="start" x="361" y="-435.5" font-family="sans-serif" font-size="12.00">U</text>
</g>
<!-- Usuarios&#45;&gt;Pagos -->
<g id="edge8" class="edge">
<title>Usuarios&#45;&gt;Pagos</title>
<path fill="none" stroke="black" stroke-width="2" d="M374.66,-298.01C382.63,-251.94 389.71,-175.06 364,-115.72 358.54,-103.11 349.36,-91.75 339.46,-82.16"/>
<text text-anchor="middle" x="456.5" y="-190.92" font-family="sans-serif" font-size="12.00"> &#160;&#160;&#160;&#160;&#160;&#160;&#160;&#160;&#160;&#160;&#160;&#160;&#160;&#160;&#160;&#160;&#160;&#160;&#160;&#160;&#160;&#160;&#160;&#160;&#160;&#160;&#160;&#160;&#160;&#160;&#160;&#160;&#160;&#160;&#160;&#160;&#160;&#160;&#160;</text>
<polygon fill="white" stroke="transparent" points="316.46,-72.16 316.46,-91.16 332.46,-91.16 332.46,-72.16 316.46,-72.16"/>
<polyline fill="none" stroke="black" points="332.46,-72.16 332.46,-91.16 "/>
<text text-anchor="start" x="319.46" y="-78.56" font-family="sans-serif" font-size="12.00">D</text>
<polygon fill="white" stroke="transparent" points="332.46,-72.16 332.46,-91.16 362.46,-91.16 362.46,-72.16 332.46,-72.16"/>
<polygon fill="none" stroke="black" points="332.46,-72.16 332.46,-91.16 362.46,-91.16 362.46,-72.16 332.46,-72.16"/>
<text text-anchor="start" x="335.46" y="-78.56" font-family="sans-serif" font-size="12.00">ACL</text>
<polygon fill="white" stroke="transparent" points="367.66,-289.01 367.66,-306.01 381.66,-306.01 381.66,-289.01 367.66,-289.01"/>
<text text-anchor="start" x="369.66" y="-294.41" font-family="sans-serif" font-size="12.00">U</text>
</g>
<!-- Usuarios&#45;&gt;Ventas -->
<g id="edge7" class="edge">
<title>Usuarios&#45;&gt;Ventas</title>
<path fill="none" stroke="black" stroke-width="2" d="M282.69,-321.37C255.92,-311.65 229.06,-296.36 213,-272.31 206.66,-262.83 204.43,-251.12 204.26,-239.71"/>
<text text-anchor="middle" x="288.5" y="-262.71" font-family="sans-serif" font-size="12.00"> &#160;&#160;&#160;&#160;&#160;&#160;&#160;&#160;&#160;&#160;&#160;&#160;&#160;&#160;&#160;&#160;&#160;&#160;&#160;&#160;&#160;&#160;&#160;&#160;&#160;&#160;&#160;&#160;&#160;&#160;&#160;&#160;&#160;&#160;&#160;&#160;&#160;&#160;&#160;</text>
<polygon fill="white" stroke="transparent" points="181.26,-229.71 181.26,-248.71 197.26,-248.71 197.26,-229.71 181.26,-229.71"/>
<polyline fill="none" stroke="black" points="197.26,-229.71 197.26,-248.71 "/>
<text text-anchor="start" x="184.26" y="-236.11" font-family="sans-serif" font-size="12.00">D</text>
<polygon fill="white" stroke="transparent" points="197.26,-229.71 197.26,-248.71 227.26,-248.71 227.26,-229.71 197.26,-229.71"/>
<polygon fill="none" stroke="black" points="197.26,-229.71 197.26,-248.71 227.26,-248.71 227.26,-229.71 197.26,-229.71"/>
<text text-anchor="start" x="200.26" y="-236.11" font-family="sans-serif" font-size="12.00">ACL</text>
<polygon fill="white" stroke="transparent" points="275.69,-312.37 275.69,-329.37 289.69,-329.37 289.69,-312.37 275.69,-312.37"/>
<text text-anchor="start" x="277.69" y="-317.77" font-family="sans-serif" font-size="12.00">U</text>
</g>
</g>
</svg>
